<?xml version="1.0" standalone="no"?><!DOCTYPE svg PUBLIC "-//W3C//DTD SVG 1.1//EN" "http://www.w3.org/Graphics/SVG/1.1/DTD/svg11.dtd"><svg t="1543414590058" class="icon" style="" viewBox="0 0 1024 1024" version="1.1" xmlns="http://www.w3.org/2000/svg" p-id="8575" xmlns:xlink="http://www.w3.org/1999/xlink" width="64" height="64"><defs><style type="text/css"></style></defs><path d="M262.826667 498.346667h6.826666C307.2 628.053333 399.36 716.8 505.173333 716.8c109.226667 0 211.626667-92.16 252.586667-218.453333 34.133333 0 61.44-44.373333 61.44-102.4 0-17.066667-3.413333-34.133333-6.826667-47.786667 3.413333-20.48 6.826667-40.96 6.826667-58.026667C819.2 133.12 675.84 0 508.586667 0 341.333333 0 204.8 129.706667 204.8 290.133333c0 17.066667 3.413333 37.546667 6.826667 58.026667-3.413333 17.066667-6.826667 30.72-6.826667 47.786667 0 58.026667 27.306667 102.4 58.026667 102.4z m334.506666-157.013334c-27.306667 0-51.2 10.24-68.266666 27.306667l-6.826667-6.826667c-6.826667-6.826667-17.066667-6.826667-23.893333 0l-6.826667 6.826667c-17.066667-17.066667-40.96-27.306667-68.266667-27.306667-30.72 0-58.026667 13.653333-71.68 34.133334L307.2 361.813333v-3.413333c0-54.613333 10.24-109.226667 20.48-119.466667h44.373333c54.613333 0 81.92-17.066667 95.573334-40.96 37.546667 51.2 122.88 102.4 215.04 109.226667 3.413333 20.48 13.653333 37.546667 23.893333 47.786667l-37.546667 17.066666c-17.066667-17.066667-40.96-30.72-71.68-30.72z m0 34.133334c27.306667 0 51.2 17.066667 51.2 34.133333s-23.893333 34.133333-51.2 34.133333-51.2-17.066667-51.2-34.133333 23.893333-34.133333 51.2-34.133333zM477.866667 409.6c0 17.066667-23.893333 34.133333-51.2 34.133333s-51.2-17.066667-51.2-34.133333 23.893333-34.133333 51.2-34.133333 51.2 17.066667 51.2 34.133333z m279.893333 54.613333h-3.413333c-3.413333-3.413333-10.24-3.413333-17.066667 0-3.413333 3.413333-10.24 6.826667-10.24 10.24-30.72 116.053333-126.293333 208.213333-221.866667 208.213334-92.16 0-174.08-81.92-204.8-204.8 0-6.826667-3.413333-10.24-10.24-10.24h-27.306666c-10.24 0-27.306667-27.306667-27.306667-68.266667v-17.066667l102.4 27.306667v3.413333c0 37.546667 37.546667 68.266667 85.333333 68.266667s85.333333-30.72 85.333334-68.266667v-10.24 10.24c0 37.546667 37.546667 68.266667 85.333333 68.266667s85.333333-30.72 85.333333-68.266667v-6.826666l61.44-27.306667H785.066667v20.48c0 40.96-17.066667 64.853333-27.306667 64.853333z" fill="" p-id="8576"></path><path d="M829.44 675.84l-109.226667-20.48c-6.826667 0-10.24 0-17.066666 6.826667C648.533333 716.8 580.266667 750.933333 508.586667 750.933333s-143.36-34.133333-197.973334-92.16c-3.413333-3.413333-10.24-6.826667-17.066666-6.826666l-112.64 20.48C71.68 713.386667 0 856.746667 0 965.973333v40.96c0 10.24 6.826667 17.066667 17.066667 17.066667h989.866666c10.24 0 17.066667-6.826667 17.066667-17.066667v-30.72c0-112.64-78.506667-262.826667-194.56-300.373333z" fill="" p-id="8577"></path></svg>